PathFileType	4	(X/Y/Z)	/Users/mathieubourgeois/Desktop/Analyse/Traitement/Sujet_08/Data/Transformed_Sujet_08_velo_80.trc
DataRate	CameraRate	NumFrames	NumMarkers	Units	OrigDataRate	OrigDataStartFrame	OrigNumFrames
120.000000	120.000000	4	35	mm	120.000000	0	1878
Frame#	Time	RFHD			RANE			STRN			LANI			LKNE			T10			RHUM			RWRB			C7			LFWT			LTOE			RTOE			LWRA			LBWT			RBWT			RFWT			LKNI			RKNE			LANE			LHEE			LHUM			LRAD			RRAD			RWRA			LWRB			LFHD			LBHD			RBHD			RSHO			LSHO			CLAV			LCAR			RCAR			RANI			RKNI			
		X1	Y1	Z1	X2	Y2	Z2	X3	Y3	Z3	X4	Y4	Z4	X5	Y5	Z5	X6	Y6	Z6	X7	Y7	Z7	X8	Y8	Z8	X9	Y9	Z9	X10	Y10	Z10	X11	Y11	Z11	X12	Y12	Z12	X13	Y13	Z13	X14	Y14	Z14	X15	Y15	Z15	X16	Y16	Z16	X17	Y17	Z17	X18	Y18	Z18	X19	Y19	Z19	X20	Y20	Z20	X21	Y21	Z21	X22	Y22	Z22	X23	Y23	Z23	X24	Y24	Z24	X25	Y25	Z25	X26	Y26	Z26	X27	Y27	Z27	X28	Y28	Z28	X29	Y29	Z29	X30	Y30	Z30	X31	Y31	Z31	X32	Y32	Z32	X33	Y33	Z33	X34	Y34	Z34	X35	Y35	Z35	

1	0	251.6577453613281	1453.615966796875	95.51652526855463	-213.0702514648438	618.8303833007812	174.5890960693359	-41.35137939453125	1162.410888671875	20.93187522888176	-134.3880310058594	279.8482971191406	-81.68159484863284	-95.07391357421874	690.5371704101562	-146.27880859375	-205.5310821533203	1361.659545898438	21.62343978881825	150.0745544433593	1078.967529296875	213.2502136230468	338.3401184082031	907.8868408203125	256.9625244140625	22.99689865112304	1432.064697265625	36.11045837402335	-254.5133056640625	1089.46630859375	-109.5817031860353	18.93959045410158	170.66357421875	-124.161003112793	-79.05847930908205	478.9233093261719	145.1016540527343	366.4150695800781	937.3499755859375	-172.4604187011719	-397.2161254882812	1149.925903320312	-44.54382324218762	-396.592041015625	1152.820068359375	89.19731140136707	-240.7443237304688	1092.445190429688	121.7628936767577	-112.770637512207	620.607177734375	-43.42726135253911	30.96870994567869	914.791259765625	207.2451477050781	-174.1415405273437	269.49658203125	-161.5260009765626	-216.5643157958984	251.2185363769531	-116.3976211547852	145.8501739501953	1085.732055664062	-173.6967010498047	199.7141418457032	1116.719970703125	-224.7493743896485	190.2813262939453	1100.59912109375	260.8860778808593	361.2229309082031	929.8063354492188	189.5874633789062	330.4302978515625	899.6804809570312	-226.6040802001953	254.0972747802734	1469.378295898438	-31.21850013732916	113.7390975952148	1536.1982421875	-37.19577026367195	106.1337280273437	1537.49658203125	100.2960586547851	73.28214263916014	1363.534057617188	154.0116424560546	77.2974090576172	1373.566284179688	-107.0452957153321	69.47537231445312	1293.618286132812	27.55007743835442	428.7274169921876	916.6691284179688	-254.6894836425781	440.2966613769531	907.93701171875	276.2720336914062	-181.4743804931641	620.428955078125	97.89880371093743	48.05399703979491	857.90869140625	100.3570327758788	
2	0.008333333333333333	251.7277221679688	1453.236572265625	96.7280654907226	-203.7708587646485	621.2030029296875	174.1279907226562	-40.98910140991211	1162.58056640625	20.88017082214348	-144.8245239257812	277.5975036621094	-80.90407562255862	-99.93639373779295	687.6946411132812	-146.0286102294922	-205.2672729492188	1361.810180664062	21.80066490173329	150.0323028564453	1078.810913085938	213.235855102539	338.4089660644531	907.8290405273438	256.8437805175781	23.29611015319824	1432.254272460938	36.4976272583007	-254.6871185302734	1089.6611328125	-109.8723907470704	7.070240974426285	166.6309509277344	-124.197021484375	-66.68997192382814	484.0962829589844	144.9871520996093	366.4953308105469	937.3182373046875	-172.5294036865234	-397.2178039550781	1150.24951171875	-44.2483825683595	-396.3170166015625	1153.172973632812	89.45401763916004	-240.8124542236328	1092.783813476562	121.4931259155272	-116.0914688110352	618.16796875	-43.77692413330083	33.1814155578613	923.019775390625	206.1292419433593	-185.0581970214843	267.7276611328125	-160.6000671386719	-227.4062194824219	249.9184875488281	-115.1605300903321	146.0760650634766	1085.89990234375	-173.5040130615235	199.9058837890625	1116.84033203125	-224.5888366699219	190.2400817871093	1100.408813476562	260.8802185058593	361.2608032226562	929.720703125	189.4838714599609	330.4487915039062	899.7055053710938	-226.7007446289063	254.8100433349609	1469.060546875	-29.96134376525885	114.8230285644531	1536.6064453125	-36.47714614868172	106.6376495361328	1537.797485351562	100.9976882934569	73.3814010620117	1363.531494140625	154.5807952880859	77.84622192382814	1373.871459960938	-106.6595840454102	69.76766967773438	1293.842651367188	27.86006164550774	428.7417602539063	916.595458984375	-254.7451934814453	440.3609924316406	907.905517578125	276.1949768066406	-172.1659393310547	623.2930908203125	97.39405822753901	51.49071502685545	866.0399780273438	98.05174255371088	
3	0.01666666666666667	251.7358703613281	1452.724243164062	97.82717895507807	-194.2500915527344	622.6243896484375	173.6923370361328	-40.66314315795898	1162.784790039062	20.78845024108879	-155.1130218505859	276.2261352539062	-80.04262542724612	-104.0106048583984	685.5322875976562	-145.8346099853516	-205.0556945800781	1361.983642578125	22.07511138916005	149.9794006347656	1078.679565429688	213.1668701171875	338.4677429199218	907.7940673828125	256.7158508300781	23.57602882385254	1432.453491210938	36.80376434326163	-255.0778503417969	1089.964233398438	-110.1130981445313	-4.934789657592758	163.3299865722656	-124.2521896362305	-54.09997940063478	488.5213012695312	144.8606262207031	366.5347595214844	937.3137817382812	-172.6381683349609	-397.3521423339844	1150.657958984375	-43.77979660034192	-396.1390075683594	1153.575927734375	89.72901916503895	-241.0625152587891	1093.134155273438	121.2313995361327	-122.3944702148438	616.5377197265625	-42.74237442016607	34.97515869140622	930.6036376953125	204.889175415039	-195.9208831787109	266.9127502441406	-159.5796203613282	-238.3013153076172	249.678466796875	-113.8408279418946	146.2000732421875	1086.020629882812	-173.4058074951172	200.0039215087891	1116.925659179688	-224.5111694335938	190.2347106933593	1100.24755859375	260.8020629882812	361.3160095214844	929.6500854492188	189.3501892089844	330.4228820800781	899.6769409179688	-226.7590026855469	255.4569244384766	1468.65625	-28.80192756652838	115.9007415771484	1536.983276367188	-35.87578201293953	107.1159286499023	1538.039428710938	101.5190048217773	73.52720642089842	1363.548095703125	155.0592803955077	78.26531219482423	1374.054809570312	-106.3956985473634	69.99766540527344	1294.047729492188	28.08177185058587	428.7379150390626	916.5325317382812	-254.8259429931641	440.4100952148437	907.9010009765625	276.1162109375	-162.6269989013672	625.260009765625	96.98213195800776	54.91386413574217	873.5628662109375	96.82280731201166	
4	0.025	251.8714294433594	1452.14306640625	98.57314300537104	-184.639892578125	623.0450439453125	173.2542266845703	-40.42053604125977	1162.977416992188	20.68104934692375	-165.527099609375	275.9968566894531	-79.16696929931643	-106.6538162231445	684.1130981445312	-145.5938720703125	-204.8615264892578	1362.160888671875	22.40996932983388	149.8937225341797	1078.31884765625	213.0716094970703	338.5408630371093	907.7804565429688	256.562744140625	23.80232238769531	1432.626831054688	37.02285003662101	-255.5627746582031	1090.369873046875	-110.2859954833985	-17.12702560424803	160.8779754638672	-124.2188720703125	-41.27156066894533	492.0426330566406	144.8391571044922	366.7217407226562	937.4717407226562	-172.7341156005859	-397.5859375	1151.095825195312	-43.29313278198254	-396.09130859375	1154.01220703125	90.18244171142567	-241.5137634277344	1093.436767578125	121.0770797729491	-126.2672119140625	615.5494995117188	-42.30592346191411	36.61621093749997	937.2506713867188	203.5517425537109	-206.4459381103515	266.9424133300781	-158.8196105957032	-249.1408386230469	250.5172882080078	-112.4562072753907	147.3949127197266	1086.5244140625	-171.9498901367188	199.6687774658203	1117.03125	-224.9383544921875	190.111587524414	1100.352416992188	260.7947998046874	362.3067932128906	929.5452880859375	189.20166015625	330.3754577636719	899.618408203125	-226.7427825927735	256.208740234375	1468.152465820312	-27.70725250244146	117.0657730102539	1537.343505859375	-34.5795097351075	106.6124038696289	1538.716552734375	102.226837158203	73.64099884033202	1363.577026367188	155.3793945312499	78.51495361328126	1374.383056640625	-106.4318237304688	69.977783203125	1294.935546875	27.92214202880852	428.7005615234376	916.4850463867188	-254.8936614990234	440.4548034667968	907.9200439453125	276.0301513671875	-153.0982055664062	625.994873046875	96.58689880371088	57.8838768005371	880.4108276367188	95.50489807128901	
